<?xml version="1.0" encoding="UTF-8"?>
<!-- Created with Inkscape (http://www.inkscape.org/) -->
<svg width="1920" height="1080" version="1.1" viewBox="0 0 1920 1080" xmlns="http://www.w3.org/2000/svg">
 <g fill-rule="evenodd">
  <path d="m552.94 170.6 201.07-134.33v335.43l-201.07 44.88z" points="754.0121,36.27363 754.0121,371.70035 552.94148,416.58042 552.94148,170.60115 " fill="#e9e9ff"/>
  <path d="m407.77 131.37v272.1l145.17 13.106v-245.98z" points="407.7725,403.4744 552.94148,416.58042 552.94148,170.60115 407.7725,131.37441 " fill="#353564"/>
  <path d="m407.77 131.37 170.62-170.97 175.62 75.872-201.07 134.33z" points="578.38862,-39.598662 754.0121,36.27363 552.94148,170.60115 407.7725,131.37441 " fill="#4d4d9f"/>
  <path d="m407.77 403.47 170.62-57.124 175.62 25.35-201.07 44.88z" points="578.38862,346.35071 754.0121,371.70035 552.94148,416.58042 407.7725,403.4744 " fill="#afafde"/>
  <path d="m578.39-39.599v385.95l175.62 25.35v-335.43z" points="578.38862,346.35071 754.0121,371.70035 754.0121,36.27363 578.38862,-39.598662 " fill="#d7d7ff"/>
  <path d="m407.77 131.37 170.62-170.97v385.95l-170.62 57.124z" points="578.38862,-39.598662 578.38862,346.35071 407.7725,403.4744 407.7725,131.37441 " fill="#8686bf"/>
 </g>
</svg>
